<?xml version="1.0" encoding="UTF-8" standalone="no"?>
<svg width="120px" height="42px" viewBox="0 0 120 42" version="1.1" xmlns="http://www.w3.org/2000/svg" xmlns:xlink="http://www.w3.org/1999/xlink">
    <!-- Generator: Sketch 43.2 (39069) - http://www.bohemiancoding.com/sketch -->
    <title>Heist</title>
    <desc>Created with Sketch.</desc>
    <defs></defs>
    <g id="Page-1" stroke="none" stroke-width="1" fill="none" fill-rule="evenodd">
        <g id="Heist" fill-rule="nonzero" fill="#6D838F">
            <path d="M48.814902,9.28909615 C48.814902,9.05255769 48.972549,8.89486538 49.2070588,8.89486538 L53.5443137,8.89486538 C53.7811765,8.89486538 53.934902,9.05255769 53.934902,9.28909615 L53.934902,19.4239808 C53.934902,19.5816731 54.0141176,19.6605192 54.1701961,19.6605192 L57.8831373,19.6605192 C58.0392157,19.6605192 58.1168627,19.5816731 58.1168627,19.4239808 L58.1168627,9.28909615 C58.1168627,9.05255769 58.2729412,8.89486538 58.5098039,8.89486538 L62.8454902,8.89486538 C63.0784314,8.89486538 63.2368627,9.05255769 63.2368627,9.28909615 L63.2368627,35.2168654 C63.2368627,35.4541923 63.0784314,35.6118846 62.8454902,35.6118846 L58.5098039,35.6118846 C58.2729412,35.6118846 58.1168627,35.4541923 58.1168627,35.2168654 L58.1168627,24.5308462 C58.1168627,24.3739423 58.0392157,24.2974615 57.8831373,24.2974615 L54.1701961,24.2974615 C54.0141176,24.2974615 53.934902,24.3739423 53.934902,24.5308462 L53.934902,35.2168654 C53.934902,35.4541923 53.7811765,35.6118846 53.5443137,35.6118846 L49.2070588,35.6118846 C48.972549,35.6118846 48.814902,35.4541923 48.814902,35.2168654 L48.814902,9.28909615" id="Fill-1"></path>
            <path d="M66.3270588,9.28909615 C66.3270588,9.05255769 66.4847059,8.89486538 66.7176471,8.89486538 L78.3215686,8.89486538 C78.56,8.89486538 78.7152941,9.05255769 78.7152941,9.28909615 L78.7152941,13.1399423 C78.7152941,13.3741154 78.56,13.5333846 78.3215686,13.5333846 L71.6792157,13.5333846 C71.5239216,13.5333846 71.4470588,13.6098654 71.4470588,13.7683462 L71.4470588,19.3798269 C71.4470588,19.5343654 71.5239216,19.6163654 71.6792157,19.6163654 L77.4243137,19.6163654 C77.6603922,19.6163654 77.8133333,19.7716923 77.8133333,20.0082308 L77.8133333,23.8575 C77.8133333,24.09325 77.6603922,24.2485769 77.4243137,24.2485769 L71.6792157,24.2485769 C71.5239216,24.2485769 71.4470588,24.3297885 71.4470588,24.4843269 L71.4470588,30.7399808 C71.4470588,30.8984615 71.5239216,30.9741538 71.6792157,30.9741538 L78.3215686,30.9741538 C78.56,30.9741538 78.7152941,31.1342115 78.7152941,31.3699615 L78.7152941,35.2168654 C78.7152941,35.4541923 78.56,35.6118846 78.3215686,35.6118846 L66.7176471,35.6118846 C66.4847059,35.6118846 66.3270588,35.4541923 66.3270588,35.2168654 L66.3270588,9.28909615" id="Fill-2"></path>
            <path d="M81.7639216,9.28909615 C81.7639216,9.05255769 81.92,8.89486538 82.1552941,8.89486538 L86.492549,8.89486538 C86.7270588,8.89486538 86.8862745,9.05255769 86.8862745,9.28909615 L86.8862745,35.2168654 C86.8862745,35.4541923 86.7270588,35.6118846 86.492549,35.6118846 L82.1552941,35.6118846 C81.92,35.6118846 81.7639216,35.4541923 81.7639216,35.2168654 L81.7639216,9.28909615" id="Fill-3"></path>
            <path d="M96.3403922,35.7845577 C90.7835294,35.7845577 89.0015686,32.3066538 89.0705882,27.7532885 C89.0737255,27.5128077 89.1482353,27.4915192 89.3835294,27.4520962 L93.6172549,27.4520962 C93.9145098,27.4520962 94.0509804,27.5317308 94.0509804,27.7706346 C94.1301961,30.2700577 94.8415686,31.2627308 96.3811765,31.2627308 C97.8415686,31.2627308 98.7309804,30.6461538 98.7309804,28.1861538 C98.7309804,25.805 98.2439216,25.4383654 96.2298039,24.6451731 L94.6094118,24.0088846 C90.8227451,22.5407692 89.3568627,20.5861731 89.3568627,16.2614615 C89.3568627,11.3793077 91.6431373,8.76082692 96.4188235,8.76082692 C103.829804,8.76082692 103.487059,15.0535385 103.538039,16.1029808 C103.538039,16.3410962 103.417255,16.5003654 103.180392,16.539 L99.1427451,16.5374231 C98.9082353,16.5784231 98.707451,16.4593654 98.707451,16.22125 C98.6698039,14.2761154 97.9976471,13.2850192 96.5780392,13.2850192 C95.1960784,13.2850192 94.4988235,14.1578462 94.4988235,15.9823462 C94.4988235,18.0071154 94.96,18.917 97.052549,19.7504038 L98.6698039,20.3819615 C100.715294,21.1775192 103.76,22.6361731 103.76,27.5514423 C103.76,33.0667308 101.670588,35.7845577 96.3403922,35.7845577" id="Fill-4"></path>
            <path d="M109.90902,35.6118846 C109.673725,35.6118846 109.516863,35.4541923 109.516863,35.2168654 L109.516863,13.7683462 C109.516863,13.6098654 109.440784,13.5333846 109.28549,13.5333846 L105.101961,13.5333846 C104.866667,13.5333846 104.712157,13.4679423 104.712157,13.2345577 L104.712157,9.38528846 C104.712157,9.14875 104.866667,8.89486538 105.101961,8.89486538 L119.052549,8.89486538 C119.287843,8.89486538 119.444706,9.05255769 119.444706,9.28909615 L119.444706,13.1399423 C119.444706,13.3741154 119.287843,13.5333846 119.052549,13.5333846 L114.872941,13.5333846 C114.716078,13.5333846 114.635294,13.6098654 114.635294,13.7683462 L114.635294,35.2168654 C114.635294,35.4541923 114.478431,35.6118846 114.246275,35.6118846 L109.90902,35.6118846" id="Fill-5"></path>
            <path d="M38.0407843,9.26859615 C37.9929412,9.05886538 37.8533333,8.88146154 37.6603922,8.78763462 L21.4580392,0.943230769 C21.2627451,0.850192308 21.0392157,0.850192308 20.8454902,0.943230769 L4.64313725,8.78763462 C4.44941176,8.88146154 4.30901961,9.05886538 4.26117647,9.26859615 L0.259607843,26.8938654 C0.21254902,27.1028077 0.262745098,27.3251538 0.396862745,27.4930962 L11.6094118,41.6270577 C11.7427451,41.7957885 11.9443137,41.8943462 12.16,41.8943462 L30.1435294,41.8943462 C30.3576471,41.8943462 30.56,41.7957885 30.6933333,41.6270577 L41.9082353,27.4930962 C42.0415686,27.3251538 42.0901961,27.1028077 42.0439216,26.8938654 L38.0407843,9.26859615 L38.0407843,9.26859615 Z M40.345098,25.7781923 L33.8086275,17.5387692 L34.8196078,15.5573654 C34.9529412,15.2955962 34.8509804,14.9762692 34.5905882,14.8414423 C34.3317647,14.7074038 34.012549,14.8106923 33.8792157,15.0724615 L33.0862745,16.6265192 L27.7960784,9.95771154 L31.2133333,9.95771154 C31.505098,9.95771154 31.7419608,9.71959615 31.7419608,9.42707692 C31.7419608,9.13219231 31.505098,8.89486538 31.2133333,8.89486538 L27.1890196,8.89486538 C27.1168627,8.89486538 27.0478431,8.90984615 26.985098,8.93586538 L22.1639216,2.85761538 L34.9019608,9.02575 C34.7866667,9.12273077 34.7098039,9.26307692 34.7098039,9.42707692 C34.7098039,9.71959615 34.9466667,9.95771154 35.2384314,9.95771154 L36.4886275,9.95771154 L35.9184314,11.0749615 C35.785098,11.3359423 35.8878431,11.6560577 36.1466667,11.7908846 C36.225098,11.8303077 36.3066667,11.8492308 36.387451,11.8492308 C36.5803922,11.8492308 36.7647059,11.7435769 36.8588235,11.5606538 L37.0368627,11.2121538 L40.345098,25.7781923 L40.345098,25.7781923 Z M9.52078431,19.5532885 C9.61490196,19.737 9.80078431,19.8426538 9.99137255,19.8426538 C10.0737255,19.8426538 10.1552941,19.8237308 10.2329412,19.7843077 C10.492549,19.6502692 10.5960784,19.3293654 10.4627451,19.0675962 L9.92235294,18.0094808 L21.1513725,3.85501923 L32.3803922,18.0094808 L31.84,19.0683846 C31.7058824,19.3293654 31.8101961,19.6502692 32.0698039,19.7843077 C32.1466667,19.8245192 32.2290196,19.8426538 32.3098039,19.8426538 C32.5027451,19.8426538 32.6878431,19.737 32.7811765,19.5532885 L33.1035294,18.9209423 L38.9905882,26.3419423 L29.3192157,26.3419423 L30.7427451,23.5507885 C30.8752941,23.2898077 30.7733333,22.9689038 30.5137255,22.8348654 C30.2541176,22.7008269 29.934902,22.8041154 29.8015686,23.0666731 L28.1301961,26.3419423 L14.172549,26.3419423 L12.5011765,23.0643077 C12.3678431,22.8041154 12.0486275,22.7008269 11.7890196,22.8340769 C11.5294118,22.9673269 11.4258824,23.2898077 11.5607843,23.55 L12.9843137,26.3419423 L3.31294118,26.3419423 L9.19843137,18.9225192 L9.52078431,19.5532885 L9.52078431,19.5532885 Z M37.8752941,27.7603846 L21.1513725,39.4587885 L4.42823529,27.7603846 L37.8752941,27.7603846 L37.8752941,27.7603846 Z M5.26588235,11.2145192 L5.44235294,11.5606538 C5.53647059,11.7443654 5.72156863,11.8492308 5.91372549,11.8492308 C5.99529412,11.8492308 6.07843137,11.8303077 6.15372549,11.7908846 C6.41490196,11.6560577 6.51764706,11.3359423 6.38352941,11.0749615 L5.81411765,9.95771154 L7.06352941,9.95771154 C7.35529412,9.95771154 7.59215686,9.71959615 7.59215686,9.42707692 C7.59215686,9.26307692 7.51529412,9.12351923 7.40078431,9.02575 L20.1396078,2.85761538 L15.3176471,8.93586538 C15.254902,8.90984615 15.1858824,8.89486538 15.1129412,8.89486538 L11.0894118,8.89486538 C10.7960784,8.89486538 10.5592157,9.13219231 10.5592157,9.42707692 C10.5592157,9.71959615 10.7960784,9.95771154 11.0894118,9.95771154 L14.507451,9.95771154 L9.2172549,16.6273077 L8.42352941,15.0724615 C8.29019608,14.8106923 7.97098039,14.7074038 7.71137255,14.8414423 C7.45176471,14.9754808 7.34980392,15.2955962 7.48156863,15.5565769 L8.49333333,17.5403462 L1.95921569,25.7774038 L5.26588235,11.2145192 L5.26588235,11.2145192 Z M2.97568627,28.4707885 L20.1388235,40.4766923 L12.4996078,40.4766923 L2.97568627,28.4707885 L2.97568627,28.4707885 Z M29.8039216,40.4766923 L22.1639216,40.4766923 L39.3286275,28.47 L29.8039216,40.4766923 L29.8039216,40.4766923 Z" id="Fill-6"></path>
            <path d="M16.5788235,31.0577308 C16.4447059,30.7975385 16.1254902,30.6950385 15.8658824,30.8275 C15.6070588,30.9623269 15.5043137,31.2800769 15.6384314,31.5426346 L17.6776471,35.5401346 C17.7701961,35.7238462 17.9545098,35.8295 18.147451,35.8295 C18.2298039,35.8295 18.3113725,35.809 18.3890196,35.7711538 C18.6486275,35.6363269 18.7505882,35.3162115 18.6180392,35.0536538 L16.5788235,31.0577308" id="Fill-7"></path>
            <path d="M23.9145098,35.7719423 C23.9905882,35.809 24.0737255,35.8295 24.1552941,35.8295 C24.347451,35.8295 24.532549,35.7238462 24.6266667,35.5409231 L26.665098,31.5434231 C26.7984314,31.2816538 26.6956863,30.9631154 26.4360784,30.8282885 C26.1764706,30.6950385 25.8564706,30.7975385 25.7239216,31.0577308 L23.6862745,35.0560192 C23.5513725,35.3162115 23.654902,35.6379038 23.9145098,35.7719423" id="Fill-8"></path>
            <path d="M19.1380392,9.95771154 L23.1639216,9.95771154 C23.4564706,9.95771154 23.6917647,9.71959615 23.6917647,9.42707692 C23.6917647,9.13219231 23.4564706,8.89486538 23.1639216,8.89486538 L19.1380392,8.89486538 C18.8462745,8.89486538 18.6094118,9.13219231 18.6094118,9.42707692 C18.6094118,9.71959615 18.8462745,9.95771154 19.1380392,9.95771154" id="Fill-9"></path>
        </g>
    </g>
</svg>