<?xml version="1.0" encoding="UTF-8" standalone="no"?>
<svg width="33px" height="46px" viewBox="0 0 33 46" version="1.1" xmlns="http://www.w3.org/2000/svg" xmlns:xlink="http://www.w3.org/1999/xlink">
    <!-- Generator: Sketch 43.2 (39069) - http://www.bohemiancoding.com/sketch -->
    <title>playground</title>
    <desc>Created with Sketch.</desc>
    <defs></defs>
    <g id="Page-1" stroke="none" stroke-width="1" fill="none" fill-rule="evenodd">
        <g id="playground" fill-rule="nonzero" fill="#6D838F">
            <path d="M2.22830586,41.3325278 C2.22830586,41.3325278 8.1090237,44.7661539 8.36034345,44.8962297 C9.57538817,45.524773 10.916621,44.9800511 10.916621,43.2202708 L10.916621,34.1062757 L14.0918659,35.8708693 C15.3761673,36.5583459 16.9478255,36.6824345 18.6832347,35.837059 L30.5442123,28.9255482 C31.6127614,28.3264715 32.6328309,26.7402039 32.6328309,25.1783548 L32.6328309,11.4888135 C32.6328309,9.49764378 31.4094519,8.06129206 30.5687456,7.56329419 L18.8282043,0.747931461 C17.4383744,-0.0655120281 15.5356926,-0.0383933319 14.2204017,0.747931461 L2.40567351,7.50976118 C1.11855484,8.20709908 0,9.9054808 0,11.425067 L0,37.4969345 C0,38.9655704 0.887894722,40.4845696 2.22830586,41.3325278 Z M21.9924151,30.1408414 C21.9924151,30.256947 21.925506,30.3508646 21.8406372,30.3999365 C21.7555336,30.4492432 16.6966231,33.3721926 16.5894513,33.4301867 C16.482162,33.4881808 16.3928326,33.4927593 16.2810828,33.425843 C16.1693329,33.3588093 11.3204229,30.5653488 11.3204229,30.5653488 C11.2310935,30.5116984 11.1594891,30.404515 11.1594891,30.288292 C11.1594891,30.288292 11.1639497,25.8859063 11.1639497,25.7025322 C11.1639497,25.4300539 11.4500152,25.3273316 11.584068,25.4030526 C11.8298707,25.5424028 16.2246209,28.0842816 16.290004,28.1204399 C16.3704122,28.1651681 16.482162,28.1740903 16.5849907,28.1204399 C16.6592949,28.0819337 21.276371,25.4102138 21.5266343,25.2639372 C21.7781888,25.1169562 21.9881893,25.3494022 21.9881893,25.5370025 C21.9877197,25.7246029 21.9924151,30.0245011 21.9924151,30.1408414 Z M29.4634552,25.6666088 C29.4634552,25.8007935 29.5131088,25.8901326 29.4639247,25.9214775 C29.4147407,25.9528225 25.4848323,28.2589683 25.4848323,28.2589683 C25.3352847,28.3395026 25.0959382,28.2366629 25.0959382,27.9682934 C25.0959382,27.7001588 25.140192,17.6660064 25.140192,17.4649054 C25.140192,17.2370379 25.3918639,17.0850089 25.6085553,17.210154 C25.8496627,17.3492694 29.4343439,19.5029165 29.4343439,19.5029165 C29.555015,19.5744113 29.46369,19.6594067 29.46369,19.7710512 C29.4634552,19.7714034 29.4634552,25.5327762 29.4634552,25.6666088 Z M24.4547852,7.6053223 C24.5307328,7.64993314 29.5674577,10.559734 29.5674577,10.559734 C29.6836681,10.6223066 29.7327348,10.7340685 29.7327348,10.8278687 C29.7327348,10.8278687 29.7371954,15.1498375 29.7371954,15.4314728 C29.7371954,15.6817631 29.4510125,15.7979861 29.2946566,15.7085296 C29.1383007,15.6191905 20.3816679,10.5758174 20.1643896,10.4433936 C19.9370163,10.3048652 19.9678883,10.0187689 20.1668547,9.91158544 C20.390237,9.79090137 24.0347842,7.67235596 24.1419561,7.60978338 C24.2492453,7.5472108 24.3790723,7.56059406 24.4547852,7.6053223 Z M11.1593717,6.33156535 C11.1593717,6.22884302 11.2308587,6.11696372 11.3292268,6.06343071 L16.4194788,3.12698072 C16.5044651,3.0777914 16.6160975,3.08225248 16.7101223,3.1314418 L20.7052964,5.44216603 C20.8976893,5.55392793 20.9377173,5.82652366 20.7321774,5.95166881 L11.6243308,11.2078826 C11.4366334,11.3151834 11.1634801,11.2123437 11.1634801,10.9531312 L11.1593717,6.33156535 Z M11.1684103,15.270639 C11.1684103,15.1946831 11.2131337,15.0918434 11.3024631,15.0292708 C11.3917926,14.9666982 16.4016364,12.0837813 16.4016364,12.0837813 C16.4910832,12.0301309 16.6070589,12.0167476 16.7100049,12.0793202 L21.8628228,15.0515762 C21.9522697,15.1006482 21.9857242,15.2437551 21.9857242,15.3018666 C21.9857242,15.359978 21.9830243,21.0289595 21.9830243,21.1575092 C21.9830243,21.2860588 21.9356011,21.4027514 21.8254946,21.463563 C21.7153882,21.5249616 16.5894513,24.4911131 16.5894513,24.4911131 C16.5001218,24.5358413 16.3928326,24.5447635 16.290004,24.4867694 C16.1871753,24.4285405 11.3651463,21.6441196 11.2981199,21.603735 C11.2310935,21.5635852 11.1640671,21.4652066 11.1640671,21.3623669 C11.1638323,21.2731452 11.1684103,15.3465948 11.1684103,15.270639 Z M3.16937566,10.8234076 C3.16937566,10.6982624 3.34322178,10.6044623 3.46835343,10.5328501 L7.49498651,8.24443131 C7.71848619,8.11482507 7.98682666,8.23997022 7.98682666,8.55447666 C7.98682666,8.55447666 7.99786079,39.8037847 7.99786079,40.4384326 C7.99786079,40.7379122 7.70592607,40.7915626 7.5451096,40.6975277 C6.86580675,40.3015477 3.42891231,38.3868034 3.42891231,38.3868034 C3.32162308,38.3286919 3.16949304,38.2347744 3.16949304,38.1320521 L3.16937566,10.8234076 L3.16937566,10.8234076 Z" id="Shape"></path>
        </g>
    </g>
</svg>