<?xml version="1.0" encoding="UTF-8" standalone="no"?>
<svg width="75px" height="23px" viewBox="0 0 75 23" version="1.1" xmlns="http://www.w3.org/2000/svg" xmlns:xlink="http://www.w3.org/1999/xlink">
    <!-- Generator: Sketch 43.2 (39069) - http://www.bohemiancoding.com/sketch -->
    <title>Group</title>
    <desc>Created with Sketch.</desc>
    <defs></defs>
    <g id="Page-1" stroke="none" stroke-width="1" fill="none" fill-rule="evenodd">
        <g id="Group" fill-rule="nonzero">
            <path d="M3.82605019,6.7026855 C3.82605019,5.49054425 3.82605019,3.36846925 5.52318039,3.36846925 C6.82693312,3.36846925 7.28123774,4.58083125 7.28123774,5.45985993 C7.28123774,9.31019096 0.128699288,10.1892196 0.128699288,16.584363 C0.128699288,19.8269677 1.88609439,22.463833 5.22008989,22.463833 C8.76622667,22.463833 10.1302443,19.7667028 10.2211935,15.8867912 L6.70507881,15.8867912 C6.70507881,17.0989325 6.70507881,19.1298375 5.12914066,19.1298375 C4.18984709,19.1298375 3.64415174,18.3417581 3.64415174,17.1598596 C3.64415174,13.4925308 10.7971317,12.2501467 10.7971317,5.9755332 C10.7971317,2.67222203 8.91810304,0.0351360006 5.37130401,0.0351360006 C1.15894209,0.0351360006 0.309935487,3.7324869 0.309935487,6.7026855 L3.82605019,6.7026855 Z" id="path22" fill="#96A6AE" transform="translate(5.462915, 11.249485) scale(1, -1) rotate(-360.000000) translate(-5.462915, -11.249485) "></path>
            <path d="M22.4969327,16.4928177 C22.4366678,18.8574976 22.2247473,19.7365262 21.4666899,19.7365262 C20.6779482,19.7365262 20.4960498,18.8274755 20.4960498,14.0376301 C20.4960498,10.2186457 20.7991403,9.30959493 21.617904,9.30959493 C22.6788312,9.30959493 22.7390961,11.0676523 22.9518996,12.6435904 L25.6490298,12.5533035 C25.5887649,9.73431898 25.0128267,6.64182458 21.4360056,6.58155968 C18.6779483,6.58155968 16.5565355,8.67339186 16.5565355,14.4323321 C16.5565355,20.1906101 18.6779483,22.282663 21.4360056,22.282663 C24.8309283,22.282663 25.4062042,19.6148927 25.6490298,16.5844292 L22.4969327,16.4928177 Z" id="path30" fill="#96A6AE" transform="translate(21.102783, 14.432111) scale(1, -1) translate(-21.102783, -14.432111) "></path>
            <path d="M61.3241282,22.2771259 L61.3241282,15.0632188 L61.2638633,15.0632188 C60.8398015,15.6398192 60.0813026,16.1548303 59.0510598,16.1548303 C56.4742387,16.1548303 55.2921195,13.3660886 55.2921195,8.33540441 C55.2921195,3.36388136 56.2018325,0.453947655 58.7473071,0.453947655 C60.1426713,0.453947655 60.717285,1.12149731 61.4144152,1.90957676 L61.4757838,1.90957676 L61.4757838,0.696111005 L64.8393599,0.696111005 L64.8393599,22.2771259 L61.3241282,22.2771259 Z M61.3241282,3.48507341 C61.1426713,3.21266723 60.7788744,2.99986371 60.2629803,2.99986371 C59.2329583,2.99986371 59.0510598,3.69699393 59.0510598,8.36564724 C59.0510598,13.1539473 59.3232453,13.7908127 60.3534881,13.7908127 C60.8091172,13.7908127 61.1729141,13.5793336 61.3241282,13.3058237 L61.3241282,3.48507341 Z" id="path46" fill="#536670" transform="translate(60.065740, 11.365537) scale(1, -1) translate(-60.065740, -11.365537) "></path>
            <path d="M72.2659394,0.763433862 C71.3769769,0.763433862 70.6491624,1.49124841 70.6491624,2.38021086 C70.6491624,3.27734108 71.3681469,3.99765012 72.2659394,3.99765012 C73.1630696,3.99765012 73.8827164,3.27734108 73.8827164,2.38021086 C73.8827164,1.49124841 73.1549018,0.763433862 72.2659394,0.763433862 L72.2659394,0.763433862 Z M72.2659394,3.7874956 C71.4904427,3.7874956 70.8586546,3.15636978 70.8586546,2.38021086 C70.8586546,1.60405194 71.4904427,0.97292613 72.2659394,0.97292613 C73.0420983,0.97292613 73.6725619,1.60405194 73.6725619,2.38021086 C73.6725619,3.1638753 73.0420983,3.7874956 72.2659394,3.7874956 L72.2659394,3.7874956 Z M72.2983897,3.22104969 C72.702584,3.22104969 72.9134007,3.05968105 72.9134007,2.74422851 C72.9134007,2.54157951 72.823776,2.40471417 72.6303985,2.31553095 L72.9617451,1.54776055 L72.5652771,1.54776055 L72.3142838,2.23473625 L72.0877937,2.23473625 L72.0877937,1.54776055 L71.723776,1.54776055 L71.723776,3.22104969 L72.2983897,3.22104969 Z M72.0877937,2.47756185 L72.2822749,2.47756185 C72.4522528,2.47756185 72.5482793,2.57535435 72.5482793,2.74422851 C72.5482793,2.89787089 72.4610829,2.9795486 72.2822749,2.9795486 L72.0877937,2.9795486 L72.0877937,2.47756185 Z" id="path54" fill="#536670" transform="translate(72.265939, 2.380542) scale(1, -1) translate(-72.265939, -2.380542) "></path>
            <path d="M71.8719665,17.7945361 C71.7507744,18.7342712 71.5388539,19.7344919 70.3253882,19.7344919 C69.6589423,19.7344919 69.2649025,19.0976266 69.2649025,18.4307392 C69.2649025,15.9455296 74.9631364,15.7033662 74.9631364,11.065618 C74.9631364,8.42919422 73.2052998,6.57952539 70.478589,6.57952539 C67.5980152,6.57952539 66.415896,8.30733992 66.1134677,11.0046908 L68.8710836,11.4300771 C69.1130262,9.79254959 69.4783683,9.12544144 70.6289202,9.12544144 C71.3562932,9.12544144 71.8117016,9.67135754 71.8117016,10.36915 C71.8117016,12.7631897 66.3556311,12.9139623 66.3556311,18.0667216 C66.3556311,20.4916663 68.0830041,22.280408 70.5386332,22.280408 C72.9931585,22.280408 74.2052998,20.4916663 74.4178825,18.2185979 L71.8719665,17.7945361 Z" id="path50" fill="#536670" transform="translate(70.538302, 14.429967) scale(1, -1) translate(-70.538302, -14.429967) "></path>
            <polygon id="path38" fill="#536670" transform="translate(43.563257, 11.252216) scale(1, -1) translate(-43.563257, -11.252216) " points="37.8651331 22.0427233 41.8053096 22.0427233 41.8053096 13.010494 41.8655745 13.010494 45.1393051 22.0427233 48.6554198 22.0427233 45.7152432 14.7987942 49.26138 0.461708417 45.4724176 0.461708417 43.2909607 10.1308031 43.2300336 10.1308031 41.8053096 6.73588045 41.8053096 0.461708417 37.8651331 0.461708417"></polygon>
            <polygon id="path42" fill="#536670" transform="translate(52.017981, 14.431561) scale(1, -1) translate(-52.017981, -14.431561) " points="50.2600337 22.0398392 53.7759276 22.0398392 53.7759276 6.82328326 50.2600337 6.82328326"></polygon>
            <polygon id="path24" fill="#96A6AE" points="11.8239181 3.97048745 15.3400328 3.97048745 15.3400328 0.455035 11.8239181 0.455035"></polygon>
            <polygon id="path26" fill="#96A6AE" points="11.8287955 22.0369344 15.3449102 22.0369344 15.3449102 6.82037847 11.8287955 6.82037847"></polygon>
            <polygon id="path34" fill="#96A6AE" transform="translate(31.640887, 11.239146) scale(1, -1) translate(-31.640887, -11.239146) " points="26.8365825 22.0296532 30.3524765 22.0296532 30.3524765 10.3605585 30.4134036 10.3605585 30.975214 11.4655106 33.1105338 15.6651942 36.0206882 15.6651942 33.5955227 11.057468 36.4451915 0.448638256 32.9286353 0.448638256 31.2012623 7.29985221 31.1712402 7.29985221 30.3524765 5.63230259 30.3524765 0.448638256 26.8365825 0.448638256"></polygon>
            <polygon id="path40" fill="#536670" points="50.2534586 3.97048745 53.7693525 3.97048745 53.7693525 0.455035 50.2534586 0.455035"></polygon>
        </g>
    </g>
</svg>